<svg width="1489" height="542" viewBox="0 0 1489 542" fill="none" xmlns="http://www.w3.org/2000/svg">
<path d="M101.84 211.199C101.189 210.223 100.049 209.246 98.4219 208.27C97.1198 207.293 95.4922 206.479 93.5391 205.828C91.5859 205.177 89.6328 205.014 87.6797 205.34C86.0521 205.34 84.75 205.991 83.7734 207.293C82.7969 208.921 81.0065 215.105 78.4023 225.848C76.1237 236.264 73.6823 249.285 71.0781 264.91C68.474 280.535 66.1953 297.951 64.2422 317.156C62.2891 336.362 61.3125 355.405 61.3125 374.285C61.3125 387.957 61.8008 402.28 62.7773 417.254C63.7539 431.902 64.8932 445.411 66.1953 457.781C67.8229 470.151 69.6133 480.405 71.5664 488.543C73.8451 496.355 76.1237 500.262 78.4023 500.262C80.681 500.587 83.7734 498.146 87.6797 492.938C91.5859 487.729 95.3294 481.87 98.9102 475.359C102.491 468.523 105.746 462.013 108.676 455.828C111.931 449.318 114.047 444.923 115.023 442.645C116.326 439.064 118.116 435.158 120.395 430.926C122.673 426.368 124.952 422.299 127.23 418.719C129.509 414.812 131.788 411.72 134.066 409.441C136.345 406.837 138.298 405.535 139.926 405.535C141.879 405.535 143.507 407.488 144.809 411.395C146.436 415.301 147.576 420.021 148.227 425.555C149.203 430.763 149.854 436.297 150.18 442.156C150.505 447.69 150.668 452.247 150.668 455.828C150.668 462.339 149.366 470.477 146.762 480.242C144.483 490.008 141.391 499.448 137.484 508.562C133.904 517.677 129.835 525.49 125.277 532C121.046 538.51 116.977 541.603 113.07 541.277C109.164 540.952 102.816 538.673 94.0273 534.441C85.5638 530.21 76.7747 525.327 67.6602 519.793C58.5456 514.259 50.2448 508.725 42.7578 503.191C35.2708 497.658 30.8763 493.263 29.5742 490.008C27.9466 487.078 25.5052 480.079 22.25 469.012C19.3203 457.618 16.2279 443.947 12.9727 427.996C9.71745 412.046 6.78776 394.467 4.18359 375.262C1.90495 356.056 0.765625 336.688 0.765625 317.156C0.765625 297.625 0.928385 278.419 1.25391 259.539C1.57943 240.333 2.23047 223.243 3.20703 208.27C4.50911 193.296 6.46224 181.251 9.06641 172.137C11.6706 162.697 15.2513 157.651 19.8086 157C28.9232 156.023 38.8516 156.674 49.5938 158.953C60.3359 160.906 71.0781 163.999 81.8203 168.23C92.5625 172.462 102.816 177.345 112.582 182.879C122.673 188.087 131.625 193.621 139.438 199.48C147.25 205.014 153.435 210.385 157.992 215.594C162.875 220.802 165.479 225.197 165.805 228.777C166.13 234.311 165.479 240.496 163.852 247.332C162.224 254.168 160.271 260.841 157.992 267.352C155.714 273.536 153.272 279.233 150.668 284.441C148.389 289.324 146.599 292.742 145.297 294.695C143.669 296.974 141.716 299.415 139.438 302.02C137.159 304.624 134.717 306.902 132.113 308.855C129.835 310.809 127.393 312.273 124.789 313.25C122.51 313.901 120.395 313.413 118.441 311.785C117.139 310.809 115.837 307.716 114.535 302.508C113.559 297.299 112.419 291.115 111.117 283.953C110.141 276.792 109.164 269.142 108.188 261.004C107.211 252.54 106.234 244.728 105.258 237.566C104.607 230.405 103.956 224.383 103.305 219.5C102.654 214.617 102.165 211.85 101.84 211.199Z" fill="white"/>
<path d="M287.387 264.91C289.665 266.863 291.781 270.607 293.734 276.141C296.013 281.674 297.966 288.348 299.594 296.16C301.221 303.973 302.686 312.436 303.988 321.551C305.29 330.665 306.43 339.617 307.406 348.406C308.383 357.195 309.034 365.496 309.359 373.309C310.01 380.796 310.499 386.98 310.824 391.863C311.15 397.723 311.312 403.908 311.312 410.418C311.638 416.603 311.638 422.625 311.312 428.484C311.312 434.018 310.987 439.064 310.336 443.621C310.01 448.178 309.359 451.596 308.383 453.875C306.43 458.758 303.012 462.176 298.129 464.129C293.572 465.757 288.363 466.896 282.504 467.547C279.574 467.872 274.529 468.035 267.367 468.035C260.531 467.71 253.044 467.384 244.906 467.059C237.094 466.408 229.607 465.757 222.445 465.105C215.284 464.454 209.913 463.803 206.332 463.152C199.171 461.525 193.962 459.409 190.707 456.805C187.777 454.201 184.848 450.457 181.918 445.574C180.941 443.621 180.128 438.738 179.477 430.926C178.826 422.788 178.337 413.185 178.012 402.117C178.012 390.724 178.174 378.517 178.5 365.496C178.826 352.475 179.314 340.105 179.965 328.387C180.941 316.668 181.918 306.414 182.895 297.625C184.197 288.836 185.824 282.977 187.777 280.047C191.033 275.49 196.566 271.258 204.379 267.352C212.517 263.445 219.841 260.353 226.352 258.074C229.607 257.098 233.839 256.447 239.047 256.121C244.581 255.47 250.277 255.47 256.137 256.121C262.322 256.447 268.181 257.423 273.715 259.051C279.249 260.353 283.806 262.306 287.387 264.91ZM260.043 416.277C260.694 414.975 261.345 411.069 261.996 404.559C262.973 397.723 263.624 389.585 263.949 380.145C264.6 370.704 264.926 360.613 264.926 349.871C265.251 339.129 265.414 329.201 265.414 320.086C265.414 310.971 265.089 303.322 264.438 297.137C263.786 290.626 262.973 286.883 261.996 285.906C260.368 284.604 257.927 284.116 254.672 284.441C251.742 284.441 248.65 284.93 245.395 285.906C242.139 286.557 239.21 287.534 236.605 288.836C234.001 289.812 232.211 290.789 231.234 291.766C227.003 295.346 224.724 301.206 224.398 309.344C224.398 311.622 224.073 318.133 223.422 328.875C223.096 339.292 222.934 350.685 222.934 363.055C222.934 375.099 223.096 386.329 223.422 396.746C224.073 407.163 225.212 413.51 226.84 415.789C228.467 418.068 230.746 419.858 233.676 421.16C236.931 422.137 240.186 422.625 243.441 422.625C247.022 422.625 250.277 422.137 253.207 421.16C256.462 419.858 258.741 418.23 260.043 416.277Z" fill="white"/>
<path d="M446.078 270.77C446.729 271.746 447.706 276.303 449.008 284.441C450.31 292.579 451.612 302.671 452.914 314.715C454.542 326.759 456.007 339.78 457.309 353.777C458.936 367.775 460.401 381.121 461.703 393.816C463.331 406.512 464.633 417.905 465.609 427.996C466.586 438.087 467.4 444.923 468.051 448.504C469.027 454.363 470.167 460.874 471.469 468.035C472.771 474.871 473.91 481.544 474.887 488.055C475.863 494.24 476.514 499.611 476.84 504.168C477.491 508.725 477.328 511.492 476.352 512.469C475.701 513.445 473.096 513.771 468.539 513.445C463.982 512.794 458.936 511.818 453.402 510.516C448.194 508.888 443.148 507.098 438.266 505.145C433.708 502.866 430.779 500.75 429.477 498.797C428.174 497.169 426.872 494.728 425.57 491.473C424.594 488.217 423.292 482.521 421.664 474.383C418.083 479.266 414.177 484.474 409.945 490.008C406.039 495.216 402.133 500.099 398.227 504.656C394.32 508.888 390.74 512.306 387.484 514.91C384.229 517.514 381.788 518.816 380.16 518.816C377.556 518.816 373.65 516.212 368.441 511.004C363.233 505.47 358.025 499.285 352.816 492.449C347.608 485.613 342.888 479.103 338.656 472.918C334.424 466.733 332.146 462.664 331.82 460.711C331.169 458.758 330.844 453.387 330.844 444.598C331.169 435.809 331.495 426.043 331.82 415.301C332.471 404.233 333.122 393.328 333.773 382.586C334.424 371.518 335.076 362.729 335.727 356.219C336.378 349.708 337.029 342.547 337.68 334.734C338.656 326.596 339.633 319.109 340.609 312.273C341.586 305.112 342.4 298.927 343.051 293.719C344.027 288.51 344.841 285.418 345.492 284.441C346.143 283.465 347.934 282.977 350.863 282.977C354.118 282.651 357.374 282.814 360.629 283.465C364.21 283.79 367.465 284.604 370.395 285.906C373.324 286.883 375.277 288.185 376.254 289.812C376.905 291.115 377.23 295.346 377.23 302.508C377.556 309.344 377.719 317.807 377.719 327.898C377.719 337.664 377.719 348.406 377.719 360.125C377.719 371.518 377.556 382.26 377.23 392.352C377.23 402.117 377.068 410.581 376.742 417.742C376.742 424.578 376.742 428.647 376.742 429.949C376.742 432.553 378.207 437.599 381.137 445.086C384.392 452.573 387.647 459.734 390.902 466.57L416.293 436.297C415.967 430.438 415.642 422.951 415.316 413.836C415.316 404.721 415.154 395.118 414.828 385.027C414.503 374.936 414.177 364.682 413.852 354.266C413.526 343.849 413.363 334.409 413.363 325.945C413.363 317.482 413.363 310.483 413.363 304.949C413.363 299.415 413.526 296.16 413.852 295.184C414.828 293.23 416.781 290.626 419.711 287.371C422.641 284.116 425.896 281.023 429.477 278.094C433.057 275.164 436.312 272.885 439.242 271.258C442.497 269.63 444.776 269.467 446.078 270.77Z" fill="white"/>
<path d="M635.043 327.41C635.043 332.618 634.392 340.105 633.09 349.871C632.113 359.637 630.648 370.379 628.695 382.098C626.742 393.491 624.626 405.372 622.348 417.742C620.395 429.786 618.279 440.854 616 450.945C614.047 461.036 612.257 469.5 610.629 476.336C609.327 483.172 608.513 486.915 608.188 487.566C607.536 488.543 605.746 489.194 602.816 489.52C600.212 489.52 597.12 489.194 593.539 488.543C590.284 487.892 587.191 486.915 584.262 485.613C581.658 484.311 580.03 482.684 579.379 480.73C579.053 479.428 578.891 474.871 578.891 467.059C579.216 459.246 579.542 449.969 579.867 439.227C580.518 428.159 581.169 416.44 581.82 404.07C582.471 391.375 583.122 379.656 583.773 368.914C584.75 357.846 585.401 348.406 585.727 340.594C586.378 332.781 586.703 328.061 586.703 326.434C586.703 320.574 586.052 315.04 584.75 309.832C583.773 304.298 582.471 299.578 580.844 295.672C579.216 291.766 577.263 288.836 574.984 286.883C573.031 284.604 571.241 283.79 569.613 284.441C565.382 285.092 561.801 286.232 558.871 287.859C555.941 289.161 553.5 290.626 551.547 292.254C549.268 294.207 547.478 296.486 546.176 299.09C545.85 299.741 545.199 301.694 544.223 304.949C543.572 308.204 543.246 311.948 543.246 316.18C543.246 317.482 543.246 322.202 543.246 330.34C543.246 338.152 543.083 347.592 542.758 358.66C542.758 369.728 542.595 381.772 542.27 394.793C542.27 407.488 542.107 419.37 541.781 430.438C541.781 441.18 541.618 450.457 541.293 458.27C540.967 466.082 540.642 470.477 540.316 471.453C539.665 473.406 538.038 476.173 535.434 479.754C532.829 483.009 529.9 486.102 526.645 489.031C523.389 491.961 520.297 494.24 517.367 495.867C514.438 497.169 512.484 496.844 511.508 494.891C510.531 493.914 509.555 489.194 508.578 480.73C507.602 471.941 506.462 461.362 505.16 448.992C504.184 436.297 503.044 422.625 501.742 407.977C500.44 393.003 499.301 378.68 498.324 365.008C497.348 351.336 496.534 338.966 495.883 327.898C495.232 316.831 494.743 308.855 494.418 303.973C494.092 297.137 493.767 289.487 493.441 281.023C493.116 272.234 492.79 264.096 492.465 256.609C492.465 248.797 492.465 242.124 492.465 236.59C492.79 230.73 493.441 227.15 494.418 225.848C495.069 224.546 497.185 224.22 500.766 224.871C504.672 225.522 508.741 226.824 512.973 228.777C517.53 230.405 521.762 232.521 525.668 235.125C529.574 237.404 532.178 239.682 533.48 241.961C534.132 243.914 534.945 246.193 535.922 248.797C536.898 251.076 537.712 254.982 538.363 260.516C543.897 257.26 549.919 254.331 556.43 251.727C562.94 248.797 569.288 246.681 575.473 245.379C581.983 243.751 588.168 243.263 594.027 243.914C599.887 244.24 605.095 245.867 609.652 248.797C612.582 251.076 615.512 254.982 618.441 260.516C621.697 266.049 624.464 272.56 626.742 280.047C629.346 287.534 631.299 295.509 632.602 303.973C634.229 312.111 635.043 319.923 635.043 327.41Z" fill="white"/>
<path d="M768.344 281.023C768.669 282 768.669 284.767 768.344 289.324C768.018 293.556 767.367 298.439 766.391 303.973C765.74 309.181 764.926 314.064 763.949 318.621C762.973 322.853 762.159 325.457 761.508 326.434C758.253 326.759 754.997 326.922 751.742 326.922C748.487 326.596 745.395 326.434 742.465 326.434H732.211C731.885 347.918 731.397 369.24 730.746 390.398C730.095 411.557 729.281 430.6 728.305 447.527C727.328 464.129 726.189 477.638 724.887 488.055C723.91 498.471 722.934 503.842 721.957 504.168C719.678 504.493 717.074 503.517 714.145 501.238C711.215 498.96 708.285 496.193 705.355 492.938C702.751 489.357 700.31 485.776 698.031 482.195C696.078 478.289 694.939 474.871 694.613 471.941C692.986 452.085 691.521 433.204 690.219 415.301C688.917 397.072 687.94 380.958 687.289 366.961C685.987 350.685 685.173 335.548 684.848 321.551C681.267 321.225 677.686 320.737 674.105 320.086C670.85 319.435 667.432 318.784 663.852 318.133C660.596 317.482 657.178 316.831 653.598 316.18C652.947 315.529 652.133 314.064 651.156 311.785C650.18 309.181 649.203 306.414 648.227 303.484C647.576 300.555 646.924 297.788 646.273 295.184C645.622 292.254 645.297 290.138 645.297 288.836C645.297 287.859 648.878 286.883 656.039 285.906C663.526 284.93 672.641 284.116 683.383 283.465C682.732 266.212 682.243 251.238 681.918 238.543C681.918 225.522 682.406 216.733 683.383 212.176C684.359 205.991 686.964 200.132 691.195 194.598C695.753 188.738 700.473 183.693 705.355 179.461C710.564 175.229 715.284 172.137 719.516 170.184C724.073 167.905 727.003 167.254 728.305 168.23C729.281 168.882 730.095 172.299 730.746 178.484C731.397 184.344 731.885 192.319 732.211 202.41C732.536 212.501 732.699 224.383 732.699 238.055C732.699 251.401 732.699 265.561 732.699 280.535C742.465 279.884 750.766 279.721 757.602 280.047C764.438 280.047 768.018 280.372 768.344 281.023Z" fill="white"/>
<path d="M879.613 169.207C886.124 170.509 895.076 174.415 906.469 180.926C917.862 187.111 929.255 194.272 940.648 202.41C952.367 210.223 962.621 218.035 971.41 225.848C980.199 233.335 985.408 238.706 987.035 241.961C988.337 245.216 988.826 251.238 988.5 260.027C988.174 268.816 987.198 279.559 985.57 292.254C983.943 304.624 981.827 318.296 979.223 333.27C976.618 348.243 973.689 363.38 970.434 378.68C967.178 393.654 963.598 408.302 959.691 422.625C956.111 436.622 952.367 448.992 948.461 459.734C946.833 464.943 943.253 470.639 937.719 476.824C932.185 483.009 925.674 489.194 918.188 495.379C910.701 501.238 902.725 506.772 894.262 511.98C886.124 517.189 878.311 521.583 870.824 525.164C863.663 528.745 857.152 531.186 851.293 532.488C845.759 533.79 842.016 533.465 840.062 531.512C838.109 529.559 835.993 523.374 833.715 512.957C831.762 502.215 829.809 488.868 827.855 472.918C825.902 456.642 824.112 438.576 822.484 418.719C820.857 398.536 819.392 378.029 818.09 357.195C816.788 336.362 815.648 316.017 814.672 296.16C814.021 275.978 813.533 257.911 813.207 241.961C813.207 225.685 813.533 212.176 814.184 201.434C814.835 190.366 815.974 183.693 817.602 181.414C818.904 179.786 822.159 178.159 827.367 176.531C832.901 174.904 838.923 173.439 845.434 172.137C852.27 170.835 858.943 169.858 865.453 169.207C871.964 168.556 876.684 168.556 879.613 169.207ZM876.684 231.219C874.405 232.846 872.777 237.892 871.801 246.355C870.824 254.493 870.01 264.422 869.359 276.141C869.034 287.534 868.871 299.741 868.871 312.762C868.871 325.783 868.708 337.664 868.383 348.406C867.732 376.401 867.406 398.536 867.406 414.812C867.732 430.763 868.057 442.807 868.383 450.945C869.034 458.758 869.848 463.803 870.824 466.082C871.801 468.035 873.103 469.012 874.73 469.012C876.033 469.012 878.148 468.035 881.078 466.082C884.333 464.129 887.751 461.688 891.332 458.758C894.913 455.828 898.331 452.736 901.586 449.48C904.841 445.9 907.12 442.807 908.422 440.203C909.724 437.599 911.352 432.553 913.305 425.066C915.258 417.254 917.211 408.302 919.164 398.211C921.117 387.794 923.07 376.889 925.023 365.496C926.977 353.777 928.604 342.71 929.906 332.293C931.534 321.551 932.673 312.111 933.324 303.973C934.301 295.509 934.789 289.487 934.789 285.906C934.464 279.07 931.697 272.072 926.488 264.91C921.28 257.749 915.258 251.401 908.422 245.867C901.911 240.333 895.401 236.102 888.891 233.172C882.706 230.242 878.637 229.591 876.684 231.219Z" fill="#00C898"/>
<path d="M1114.96 264.91C1117.24 266.863 1119.36 270.607 1121.31 276.141C1123.59 281.674 1125.54 288.348 1127.17 296.16C1128.8 303.973 1130.26 312.436 1131.57 321.551C1132.87 330.665 1134.01 339.617 1134.98 348.406C1135.96 357.195 1136.61 365.496 1136.94 373.309C1137.59 380.796 1138.08 386.98 1138.4 391.863C1138.73 397.723 1138.89 403.908 1138.89 410.418C1139.22 416.603 1139.22 422.625 1138.89 428.484C1138.89 434.018 1138.57 439.064 1137.91 443.621C1137.59 448.178 1136.94 451.596 1135.96 453.875C1134.01 458.758 1130.59 462.176 1125.71 464.129C1121.15 465.757 1115.94 466.896 1110.08 467.547C1107.15 467.872 1102.11 468.035 1094.95 468.035C1088.11 467.71 1080.62 467.384 1072.48 467.059C1064.67 466.408 1057.18 465.757 1050.02 465.105C1042.86 464.454 1037.49 463.803 1033.91 463.152C1026.75 461.525 1021.54 459.409 1018.29 456.805C1015.36 454.201 1012.43 450.457 1009.5 445.574C1008.52 443.621 1007.71 438.738 1007.05 430.926C1006.4 422.788 1005.92 413.185 1005.59 402.117C1005.59 390.724 1005.75 378.517 1006.08 365.496C1006.4 352.475 1006.89 340.105 1007.54 328.387C1008.52 316.668 1009.5 306.414 1010.47 297.625C1011.77 288.836 1013.4 282.977 1015.36 280.047C1018.61 275.49 1024.14 271.258 1031.96 267.352C1040.1 263.445 1047.42 260.353 1053.93 258.074C1057.18 257.098 1061.42 256.447 1066.62 256.121C1072.16 255.47 1077.86 255.47 1083.71 256.121C1089.9 256.447 1095.76 257.423 1101.29 259.051C1106.83 260.353 1111.38 262.306 1114.96 264.91ZM1087.62 416.277C1088.27 414.975 1088.92 411.069 1089.57 404.559C1090.55 397.723 1091.2 389.585 1091.53 380.145C1092.18 370.704 1092.5 360.613 1092.5 349.871C1092.83 339.129 1092.99 329.201 1092.99 320.086C1092.99 310.971 1092.67 303.322 1092.02 297.137C1091.36 290.626 1090.55 286.883 1089.57 285.906C1087.95 284.604 1085.51 284.116 1082.25 284.441C1079.32 284.441 1076.23 284.93 1072.97 285.906C1069.72 286.557 1066.79 287.534 1064.18 288.836C1061.58 289.812 1059.79 290.789 1058.81 291.766C1054.58 295.346 1052.3 301.206 1051.98 309.344C1051.98 311.622 1051.65 318.133 1051 328.875C1050.67 339.292 1050.51 350.685 1050.51 363.055C1050.51 375.099 1050.67 386.329 1051 396.746C1051.65 407.163 1052.79 413.51 1054.42 415.789C1056.05 418.068 1058.32 419.858 1061.25 421.16C1064.51 422.137 1067.76 422.625 1071.02 422.625C1074.6 422.625 1077.86 422.137 1080.79 421.16C1084.04 419.858 1086.32 418.23 1087.62 416.277Z" fill="#00C898"/>
<path d="M1329.81 222.43C1330.79 223.406 1330.95 228.452 1330.3 237.566C1329.97 246.681 1328.99 258.4 1327.37 272.723C1326.07 287.046 1324.27 303.159 1322 321.062C1319.72 338.966 1317.28 357.195 1314.67 375.75C1312.07 393.979 1309.3 412.046 1306.37 429.949C1303.77 447.527 1301.16 463.152 1298.56 476.824C1296.28 490.496 1294.16 501.564 1292.21 510.027C1290.26 518.491 1288.79 522.723 1287.82 522.723C1285.86 522.723 1283.58 521.746 1280.98 519.793C1278.7 517.514 1276.42 514.91 1274.14 511.98C1272.19 509.051 1270.24 506.121 1268.29 503.191C1266.66 500.262 1265.68 497.82 1265.36 495.867C1264.7 492.286 1263.08 485.776 1260.47 476.336C1258.19 466.896 1256.24 455.34 1254.61 441.668C1253.31 432.553 1252.01 422.788 1250.71 412.371C1249.4 403.908 1248.1 394.305 1246.8 383.562C1245.5 372.82 1244.2 362.241 1242.89 351.824C1241.59 358.66 1240.13 366.635 1238.5 375.75C1237.2 384.865 1235.73 393.654 1234.11 402.117C1232.48 411.883 1230.52 421.974 1228.25 432.391C1226.29 443.133 1224.18 453.712 1221.9 464.129C1219.95 474.546 1217.83 483.986 1215.55 492.449C1213.6 500.587 1211.64 507.26 1209.69 512.469C1208.06 517.677 1206.76 520.281 1205.79 520.281C1203.83 520.932 1201.55 520.444 1198.95 518.816C1196.35 517.189 1193.74 515.073 1191.14 512.469C1188.53 509.539 1186.25 506.609 1184.3 503.68C1182.35 500.424 1181.21 497.495 1180.88 494.891C1177.3 469.826 1174.21 447.365 1171.61 427.508C1169 407.326 1166.72 389.585 1164.77 374.285C1163.14 358.66 1161.68 345.151 1160.38 333.758C1159.4 322.365 1158.58 312.599 1157.93 304.461C1156.31 285.581 1155.65 272.397 1155.98 264.91C1156.96 259.376 1159.24 253.842 1162.82 248.309C1166.4 242.775 1170.14 237.892 1174.05 233.66C1178.28 229.428 1182.18 226.173 1185.77 223.895C1189.67 221.29 1192.28 220.314 1193.58 220.965C1194.23 221.29 1194.88 224.708 1195.53 231.219C1196.18 237.404 1196.67 245.542 1197 255.633C1197.65 265.724 1198.14 277.443 1198.46 290.789C1199.11 303.81 1199.6 317.482 1199.93 331.805C1200.58 345.802 1201.07 360.125 1201.39 374.773C1202.04 389.096 1202.69 402.443 1203.34 414.812C1204.97 405.372 1206.76 393.979 1208.71 380.633C1210.67 366.961 1212.62 353.615 1214.57 340.594C1216.53 327.573 1218.32 316.017 1219.95 305.926C1221.9 295.509 1223.53 288.836 1224.83 285.906C1227.43 280.047 1230.36 274.839 1233.62 270.281C1237.2 265.724 1240.62 262.143 1243.87 259.539C1247.45 256.609 1250.54 254.493 1253.15 253.191C1256.08 251.889 1258.03 251.401 1259.01 251.727C1259.33 251.727 1259.82 254.331 1260.47 259.539C1261.12 264.747 1261.94 271.583 1262.91 280.047C1263.89 288.51 1264.87 298.276 1265.84 309.344C1267.15 320.086 1268.45 331.316 1269.75 343.035C1271.05 354.428 1272.35 365.822 1273.66 377.215C1274.96 388.608 1276.42 399.025 1278.05 408.465C1278.7 395.444 1279.52 380.796 1280.49 364.52C1281.47 347.918 1282.45 332.13 1283.42 317.156C1284.4 301.857 1285.38 288.51 1286.35 277.117C1287.33 265.398 1288.3 258.074 1289.28 255.145C1290.91 249.936 1293.68 245.216 1297.58 240.984C1301.49 236.427 1305.56 232.684 1309.79 229.754C1314.35 226.499 1318.42 224.22 1322 222.918C1325.9 221.616 1328.51 221.453 1329.81 222.43Z" fill="#00C898"/>
<path d="M1488.5 327.41C1488.5 332.618 1487.85 340.105 1486.55 349.871C1485.57 359.637 1484.11 370.379 1482.15 382.098C1480.2 393.491 1478.08 405.372 1475.8 417.742C1473.85 429.786 1471.74 440.854 1469.46 450.945C1467.5 461.036 1465.71 469.5 1464.09 476.336C1462.78 483.172 1461.97 486.915 1461.64 487.566C1460.99 488.543 1459.2 489.194 1456.27 489.52C1453.67 489.52 1450.58 489.194 1447 488.543C1443.74 487.892 1440.65 486.915 1437.72 485.613C1435.11 484.311 1433.49 482.684 1432.84 480.73C1432.51 479.428 1432.35 474.871 1432.35 467.059C1432.67 459.246 1433 449.969 1433.32 439.227C1433.98 428.159 1434.63 416.44 1435.28 404.07C1435.93 391.375 1436.58 379.656 1437.23 368.914C1438.21 357.846 1438.86 348.406 1439.18 340.594C1439.83 332.781 1440.16 328.061 1440.16 326.434C1440.16 320.574 1439.51 315.04 1438.21 309.832C1437.23 304.298 1435.93 299.578 1434.3 295.672C1432.67 291.766 1430.72 288.836 1428.44 286.883C1426.49 284.604 1424.7 283.79 1423.07 284.441C1418.84 285.092 1415.26 286.232 1412.33 287.859C1409.4 289.161 1406.96 290.626 1405 292.254C1402.73 294.207 1400.93 296.486 1399.63 299.09C1399.31 299.741 1398.66 301.694 1397.68 304.949C1397.03 308.204 1396.7 311.948 1396.7 316.18C1396.7 317.482 1396.7 322.202 1396.7 330.34C1396.7 338.152 1396.54 347.592 1396.21 358.66C1396.21 369.728 1396.05 381.772 1395.73 394.793C1395.73 407.488 1395.56 419.37 1395.24 430.438C1395.24 441.18 1395.08 450.457 1394.75 458.27C1394.42 466.082 1394.1 470.477 1393.77 471.453C1393.12 473.406 1391.49 476.173 1388.89 479.754C1386.29 483.009 1383.36 486.102 1380.1 489.031C1376.85 491.961 1373.75 494.24 1370.82 495.867C1367.89 497.169 1365.94 496.844 1364.96 494.891C1363.99 493.914 1363.01 489.194 1362.04 480.73C1361.06 471.941 1359.92 461.362 1358.62 448.992C1357.64 436.297 1356.5 422.625 1355.2 407.977C1353.9 393.003 1352.76 378.68 1351.78 365.008C1350.8 351.336 1349.99 338.966 1349.34 327.898C1348.69 316.831 1348.2 308.855 1347.88 303.973C1347.55 297.137 1347.22 289.487 1346.9 281.023C1346.57 272.234 1346.25 264.096 1345.92 256.609C1345.92 248.797 1345.92 242.124 1345.92 236.59C1346.25 230.73 1346.9 227.15 1347.88 225.848C1348.53 224.546 1350.64 224.22 1354.22 224.871C1358.13 225.522 1362.2 226.824 1366.43 228.777C1370.99 230.405 1375.22 232.521 1379.12 235.125C1383.03 237.404 1385.64 239.682 1386.94 241.961C1387.59 243.914 1388.4 246.193 1389.38 248.797C1390.36 251.076 1391.17 254.982 1391.82 260.516C1397.35 257.26 1403.38 254.331 1409.89 251.727C1416.4 248.797 1422.74 246.681 1428.93 245.379C1435.44 243.751 1441.62 243.263 1447.48 243.914C1453.34 244.24 1458.55 245.867 1463.11 248.797C1466.04 251.076 1468.97 254.982 1471.9 260.516C1475.15 266.049 1477.92 272.56 1480.2 280.047C1482.8 287.534 1484.76 295.509 1486.06 303.973C1487.69 312.111 1488.5 319.923 1488.5 327.41Z" fill="#00C898"/>
<path d="M1097.41 121.688C1097.93 122.078 1098.25 124.487 1098.38 128.914C1098.64 133.211 1098.71 138.81 1098.58 145.711C1098.58 152.612 1098.45 160.424 1098.19 169.148C1097.93 177.742 1097.6 186.531 1097.21 195.516C1096.82 204.5 1096.3 213.354 1095.65 222.078C1095.13 230.672 1094.61 238.354 1094.09 245.125C1093.57 251.766 1092.98 257.169 1092.33 261.336C1091.81 265.503 1091.29 267.651 1090.77 267.781C1089.85 268.042 1088.81 267.651 1087.64 266.609C1086.47 265.568 1085.36 264.331 1084.32 262.898C1083.28 261.466 1082.3 259.904 1081.39 258.211C1080.61 256.518 1080.15 255.086 1080.02 253.914C1079.11 238.549 1078.4 225.073 1077.88 213.484C1077.48 201.896 1077.16 192.13 1076.9 184.188C1076.64 174.943 1076.51 166.87 1076.51 159.969C1074.82 162.182 1073.25 164.005 1071.82 165.438C1070.52 166.87 1069.61 167.651 1069.09 167.781C1068.3 167.781 1067.13 167.065 1065.57 165.633C1064.14 164.201 1062.71 162.508 1061.27 160.555C1059.97 158.602 1058.86 156.648 1057.95 154.695C1057.04 152.742 1056.72 151.31 1056.98 150.398C1057.11 149.747 1057.89 148.706 1059.32 147.273C1060.75 145.711 1062.45 144.018 1064.4 142.195C1066.48 140.372 1068.63 138.549 1070.84 136.727C1073.19 134.904 1075.34 133.341 1077.29 132.039C1078.85 130.867 1080.67 129.63 1082.76 128.328C1084.84 126.896 1086.86 125.594 1088.81 124.422C1090.77 123.25 1092.52 122.404 1094.09 121.883C1095.65 121.232 1096.76 121.167 1097.41 121.688Z" fill="#00C898"/>
<path d="M1162.52 159.836C1169.16 159.185 1174.76 158.664 1179.31 158.273C1183.87 157.753 1187.52 157.362 1190.25 157.102C1193.11 156.711 1195.13 156.516 1196.3 156.516C1197.61 156.516 1198.39 156.581 1198.65 156.711C1199.17 157.362 1199.17 158.664 1198.65 160.617C1198.13 162.44 1197.35 164.458 1196.3 166.672C1195.26 168.885 1194.09 171.034 1192.79 173.117C1191.62 175.201 1190.64 176.633 1189.86 177.414C1189.6 177.674 1188.56 177.87 1186.73 178C1184.91 178.26 1182.63 178.456 1179.9 178.586C1177.29 178.716 1174.36 178.846 1171.11 178.977C1167.98 179.107 1164.99 179.172 1162.12 179.172C1159.26 179.302 1156.79 179.367 1154.7 179.367C1152.62 179.367 1151.25 179.302 1150.6 179.172C1149.69 179.042 1148.78 178.521 1147.87 177.609C1147.09 176.568 1146.3 175.461 1145.52 174.289C1144.87 172.987 1144.29 171.62 1143.77 170.188C1143.24 168.755 1142.92 167.453 1142.79 166.281C1142.66 165.891 1142.98 164.458 1143.77 161.984C1144.55 159.38 1145.46 156.255 1146.5 152.609C1147.67 148.964 1148.97 145.057 1150.41 140.891C1151.84 136.594 1153.21 132.492 1154.51 128.586C1155.94 124.68 1157.18 121.229 1158.22 118.234C1159.26 115.109 1159.98 112.961 1160.37 111.789C1162.45 105.93 1164.4 100.135 1166.23 94.4062C1168.18 88.5469 1169.81 83.2734 1171.11 78.5859C1172.54 73.7682 1173.58 69.7318 1174.23 66.4766C1174.89 63.0911 1174.95 61.0078 1174.43 60.2266C1174.04 59.7057 1172.93 59.7708 1171.11 60.4219C1169.42 60.9427 1167.27 61.9193 1164.66 63.3516C1162.19 64.6536 1159.52 66.151 1156.66 67.8438C1153.92 69.5365 1151.25 71.1641 1148.65 72.7266C1146.17 74.2891 1144.03 75.6562 1142.2 76.8281C1140.38 77.8698 1139.27 78.3906 1138.88 78.3906C1138.23 78.5208 1137.71 77.6745 1137.32 75.8516C1137.06 74.0286 1136.93 71.9453 1136.93 69.6016C1136.93 67.2578 1137.06 64.9792 1137.32 62.7656C1137.58 60.4219 1137.97 58.7943 1138.49 57.8828C1138.75 57.2318 1139.73 56.125 1141.42 54.5625C1143.24 53 1145.46 51.2422 1148.06 49.2891C1150.67 47.3359 1153.53 45.3177 1156.66 43.2344C1159.78 41.151 1162.84 39.3281 1165.84 37.7656C1168.96 36.2031 1171.83 34.9661 1174.43 34.0547C1177.16 33.1432 1179.44 32.8177 1181.27 33.0781C1182.44 33.3385 1184.13 34.3151 1186.34 36.0078C1188.69 37.5703 1190.97 39.3932 1193.18 41.4766C1195.39 43.4297 1197.35 45.4479 1199.04 47.5312C1200.86 49.4844 1201.9 50.8516 1202.16 51.6328C1202.29 52.2839 1201.84 54.3672 1200.8 57.8828C1199.89 61.2682 1198.52 65.5651 1196.7 70.7734C1195 75.8516 1192.98 81.5807 1190.64 87.9609C1188.3 94.2109 1185.82 100.591 1183.22 107.102C1180.74 113.612 1178.27 119.992 1175.8 126.242C1173.45 132.492 1171.3 138.091 1169.35 143.039C1167.4 147.857 1165.77 151.828 1164.47 154.953C1163.3 157.948 1162.65 159.576 1162.52 159.836Z" fill="#00C898"/>
<path d="M1294.36 94.4141C1293.06 92.3307 1291.49 90.7031 1289.67 89.5312C1287.98 88.2292 1286.22 87.3177 1284.4 86.7969C1282.58 86.1458 1280.75 85.8203 1278.93 85.8203C1277.24 85.6901 1275.8 85.6901 1274.63 85.8203C1273.33 86.0807 1272.16 85.4948 1271.12 84.0625C1270.08 82.6302 1269.29 81.0026 1268.77 79.1797C1268.38 77.2266 1268.19 75.3385 1268.19 73.5156C1268.32 71.5625 1268.84 70.2604 1269.75 69.6094C1271.31 68.3073 1273.53 66.8099 1276.39 65.1172C1279.39 63.4245 1282.25 61.6016 1284.98 59.6484C1287.85 57.5651 1290.32 55.2865 1292.41 52.8125C1294.49 50.3385 1295.53 47.6693 1295.53 44.8047C1295.53 40.8984 1295.21 37.3828 1294.55 34.2578C1294.03 31.0026 1293.38 28.2031 1292.6 25.8594C1291.82 23.5156 1290.97 21.6927 1290.06 20.3906C1289.28 18.9583 1288.7 18.112 1288.3 17.8516C1287.91 17.4609 1287.2 17.3307 1286.16 17.4609C1285.11 17.4609 1284.01 17.5911 1282.84 17.8516C1281.66 17.9818 1280.56 18.2422 1279.52 18.6328C1278.6 18.8932 1278.08 19.0885 1277.95 19.2188C1277.69 19.4792 1277.43 21.1068 1277.17 24.1016C1276.91 26.9661 1276.52 30.1562 1276 33.6719C1275.61 37.1875 1275.15 40.4427 1274.63 43.4375C1274.11 46.4323 1273.46 48.125 1272.68 48.5156C1271.12 49.2969 1269.36 48.7109 1267.41 46.7578C1265.58 44.6745 1263.89 42.2005 1262.33 39.3359C1261.55 37.9036 1260.77 36.0156 1259.98 33.6719C1259.33 31.3281 1258.75 28.9844 1258.23 26.6406C1257.84 24.1667 1257.51 21.888 1257.25 19.8047C1256.99 17.7214 1256.99 16.0938 1257.25 14.9219C1257.38 13.8802 1259.01 12.513 1262.13 10.8203C1265.26 8.9974 1269.23 7.30469 1274.05 5.74219C1278.86 4.04948 1284.2 2.68229 1290.06 1.64062C1295.92 0.598958 1301.65 0.208333 1307.25 0.46875C1309.07 0.598958 1310.64 1.64062 1311.94 3.59375C1313.37 5.54688 1314.48 8.08594 1315.26 11.2109C1316.17 14.2057 1316.82 17.6562 1317.21 21.5625C1317.73 25.4688 1317.99 29.4401 1317.99 33.4766C1317.73 37.9036 1316.69 42.3958 1314.87 46.9531C1313.3 50.8594 1310.77 55.1562 1307.25 59.8438C1303.86 64.5312 1299.05 69.0885 1292.8 73.5156C1299.83 74.4271 1305.17 76.1849 1308.81 78.7891C1312.46 81.3932 1315.13 84.1927 1316.82 87.1875C1318.77 90.5729 1319.75 94.349 1319.75 98.5156C1319.49 102.552 1318.84 106.784 1317.8 111.211C1316.76 115.508 1315.58 119.544 1314.28 123.32C1312.98 127.096 1311.68 130.352 1310.38 133.086C1309.07 135.82 1308.16 137.448 1307.64 137.969C1307.12 138.62 1305.56 139.596 1302.95 140.898C1300.48 142.201 1297.61 143.503 1294.36 144.805C1291.23 146.107 1288.11 147.214 1284.98 148.125C1281.86 149.167 1279.52 149.753 1277.95 149.883C1276.39 149.883 1274.7 148.906 1272.88 146.953C1271.05 145.13 1269.36 142.786 1267.8 139.922C1266.36 137.057 1265.06 134.062 1263.89 130.938C1262.85 127.812 1262.26 125.078 1262.13 122.734C1261.87 120.391 1261.68 118.112 1261.55 115.898C1261.55 113.555 1261.61 111.536 1261.74 109.844C1262 108.151 1262.39 106.784 1262.91 105.742C1263.43 104.701 1264.22 104.18 1265.26 104.18C1266.04 104.18 1266.95 104.57 1267.99 105.352C1269.16 106.133 1270.34 107.109 1271.51 108.281C1272.68 109.453 1273.79 110.69 1274.83 111.992C1276 113.294 1276.98 114.531 1277.76 115.703C1278.15 116.484 1278.8 117.917 1279.71 120C1280.62 121.953 1281.6 123.971 1282.64 126.055C1283.68 128.008 1284.72 129.766 1285.77 131.328C1286.94 132.891 1288.04 133.672 1289.09 133.672C1290 133.672 1290.84 132.891 1291.62 131.328C1292.41 129.766 1293.06 127.812 1293.58 125.469C1294.1 122.995 1294.55 120.326 1294.95 117.461C1295.34 114.466 1295.6 111.536 1295.73 108.672C1295.86 106.589 1295.99 104.896 1296.12 103.594C1296.25 102.161 1296.25 100.924 1296.12 99.8828C1296.12 98.8411 1295.92 97.9297 1295.53 97.1484C1295.27 96.3672 1294.88 95.4557 1294.36 94.4141Z" fill="#00C898"/>
</svg>
